<?xml version="1.0" standalone="no"?>
<!DOCTYPE svg PUBLIC "-//W3C//DTD SVG 20010904//EN"
 "http://www.w3.org/TR/2001/REC-SVG-20010904/DTD/svg10.dtd">
<svg version="1.0" xmlns="http://www.w3.org/2000/svg"
 width="256.000000pt" height="256.000000pt" viewBox="0 0 256.000000 256.000000"
 preserveAspectRatio="xMidYMid meet">
<metadata>
Created by potrace 1.14, written by Peter Selinger 2001-2017
</metadata>
<g transform="translate(0.000000,256.000000) scale(0.100000,-0.100000)"
fill="#000000" stroke="none">
<path d="M1322 2255 c-26 -21 -57 -85 -68 -140 -9 -43 -15 -75 -19 -105 -5
-29 -9 -57 -14 -90 -1 -2 -22 16 -48 41 -151 144 -276 191 -311 115 -17 -38
-6 -127 28 -222 43 -123 44 -124 31 -124 -16 0 -170 -112 -237 -172 -79 -72
-107 -102 -162 -175 -25 -35 -50 -63 -55 -63 -6 0 -85 -27 -176 -61 -91 -33
-185 -68 -209 -76 -23 -9 -42 -18 -42 -22 0 -3 14 -22 31 -41 17 -19 55 -62
84 -95 29 -33 65 -76 81 -95 16 -19 34 -40 40 -47 8 -8 10 -70 8 -202 -2 -105
-1 -191 2 -191 8 0 140 46 169 59 11 5 34 14 50 19 17 6 74 27 127 46 l96 36
84 -22 c67 -17 113 -22 243 -22 152 -1 254 6 273 18 5 3 17 -21 26 -52 45
-144 132 -273 173 -258 8 3 20 6 27 6 37 0 99 158 112 285 4 33 7 61 8 62 2 2
37 -27 98 -82 47 -42 124 -89 163 -100 91 -25 124 29 100 160 -7 42 -39 138
-56 167 -15 28 -11 35 35 62 245 144 462 394 502 581 59 271 -136 481 -496
533 -100 14 -395 5 -446 -15 -8 -3 -16 2 -19 11 -3 9 -8 24 -12 34 -3 9 -7 24
-9 32 -6 32 -84 177 -106 197 -38 36 -70 38 -106 8z m93 -37 c50 -59 125 -246
102 -252 -58 -15 -236 -66 -251 -72 -17 -7 -18 -3 -13 47 21 188 67 309 118
309 9 0 29 -14 44 -32z m-398 -171 c52 -31 63 -40 156 -124 l47 -44 -47 -20
c-27 -11 -85 -38 -129 -60 -45 -21 -84 -39 -87 -39 -12 0 -68 176 -74 231 -5
49 -3 63 12 79 22 25 51 19 122 -23z m939 -1254 c31 -74 53 -149 58 -201 4
-44 1 -57 -15 -73 -22 -22 -37 -20 -100 12 -54 27 -229 173 -218 182 2 2 31
14 64 27 33 13 87 38 120 56 33 17 63 32 67 33 4 0 15 -16 24 -36z m-312 -135
c-20 -168 -59 -287 -101 -309 -24 -13 -27 -12 -63 28 -33 37 -87 153 -105 224
-6 24 -3 26 49 38 31 7 59 13 63 13 5 1 37 11 73 24 90 31 90 31 84 -18z"/>
</g>
</svg>
